<svg xmlns="http://www.w3.org/2000/svg" viewBox="0 0 154.58 141.53"><defs><style>.cls-1{fill:#ecebeb;}.cls-2{fill:#d8d2d2;}.cls-3{fill:#637582;}.cls-4{fill:#94a5af;}.cls-5{fill:#455760;}.cls-6{fill:#ffc754;}.cls-7{fill:#a2fce2;}.cls-10,.cls-11,.cls-8,.cls-9{fill:none;stroke:#3e3127;stroke-miterlimit:10;}.cls-11,.cls-8{stroke-width:3px;}.cls-9{stroke-width:5px;}.cls-10{stroke-width:4px;}.cls-11{stroke-linecap:round;}.cls-12{fill:#fff;}</style></defs><title>Asset 29</title><g id="Layer_2" data-name="Layer 2"><g id="Layer_1-2" data-name="Layer 1"><rect class="cls-1" x="16.84" y="68.67" width="120.91" height="26.11"/><rect class="cls-2" x="17.78" y="78.06" width="118.56" height="5.04"/><path class="cls-1" d="M22,2H24.2a4.37,4.37,0,0,1,4.37,4.37V26.91a0,0,0,0,1,0,0h-11a0,0,0,0,1,0,0V6.37A4.37,4.37,0,0,1,22,2Z"/><rect class="cls-3" x="3.46" y="26.9" width="149.58" height="51.13" rx="5"/><path class="cls-4" d="M13.51,78H7.24c-2.46,0-4.47-2.3-4.47-5.14V32c0-2.83,2-5.13,4.47-5.13h6.27C11,26.9,9,29.2,9,32V72.9C9,75.74,11,78,13.51,78Z"/><path class="cls-5" d="M151.32,30V72.26a4.41,4.41,0,0,1-4.41,4.41H73.54c31.92-9.53,44.71-37,49.29-51.13h24.08A4.41,4.41,0,0,1,151.32,30Z"/><circle class="cls-6" cx="23.45" cy="49.59" r="5.78"/><circle class="cls-7" cx="58.43" cy="49.59" r="5.78"/><circle class="cls-6" cx="40.94" cy="49.59" r="5.78"/><circle class="cls-8" cx="40.94" cy="49.59" r="5.78"/><rect class="cls-9" x="2.5" y="26.91" width="149.58" height="51.13" rx="5"/><rect class="cls-10" x="16.84" y="78.06" width="120.91" height="24.77"/><circle class="cls-8" cx="23.4" cy="49.59" r="5.78"/><rect class="cls-3" x="3.46" y="87.89" width="149.58" height="51.13" rx="5"/><path class="cls-5" d="M152.08,92.31v42.3a4.4,4.4,0,0,1-4.41,4.41H74.3c31.92-9.52,44.71-37,49.29-51.12h24.08A4.4,4.4,0,0,1,152.08,92.31Z"/><line class="cls-11" x1="21.02" y1="103.74" x2="36.19" y2="103.74"/><line class="cls-11" x1="21.02" y1="113.46" x2="36.19" y2="113.46"/><line class="cls-11" x1="21.02" y1="123.18" x2="36.19" y2="123.18"/><line class="cls-11" x1="53.48" y1="103.74" x2="68.65" y2="103.74"/><line class="cls-11" x1="53.48" y1="113.46" x2="68.65" y2="113.46"/><line class="cls-11" x1="53.48" y1="123.18" x2="68.65" y2="123.18"/><line class="cls-11" x1="85.94" y1="103.74" x2="101.1" y2="103.74"/><line class="cls-11" x1="85.94" y1="113.46" x2="101.1" y2="113.46"/><line class="cls-11" x1="85.94" y1="123.18" x2="101.1" y2="123.18"/><line class="cls-11" x1="118.39" y1="103.74" x2="133.56" y2="103.74"/><line class="cls-11" x1="118.39" y1="113.46" x2="133.56" y2="113.46"/><line class="cls-11" x1="118.39" y1="123.18" x2="133.56" y2="123.18"/><polygon class="cls-12" points="27.86 9.43 17.67 18.25 17.67 14.92 27.86 6.1 27.86 9.43"/><polygon class="cls-12" points="27.86 15.23 17.67 24.05 17.67 20.72 27.86 11.9 27.86 15.23"/><path class="cls-10" d="M23.1,2h0a5.48,5.48,0,0,1,5.48,5.48V26.91a0,0,0,0,1,0,0h-11a0,0,0,0,1,0,0V7.48A5.48,5.48,0,0,1,23.1,2Z"/><circle class="cls-8" cx="58.43" cy="49.59" r="5.78"/><circle class="cls-5" cx="104.77" cy="54.05" r="6.56"/><circle class="cls-5" cx="95.18" cy="44.31" r="2.98"/><path class="cls-4" d="M13.51,139H7.24c-2.46,0-4.47-2.3-4.47-5.13V93c0-2.83,2-5.13,4.47-5.13h6.27C11,87.89,9,90.19,9,93V133.9C9,136.73,11,139,13.51,139Z"/><rect class="cls-9" x="2.5" y="87.89" width="149.58" height="51.13" rx="5"/></g></g></svg>