<svg xmlns="http://www.w3.org/2000/svg" viewBox="0 0 124.25 167.74"><defs><style>.cls-1{fill:#637582;}.cls-2{fill:#455760;}.cls-3{fill:#fff;}.cls-4{fill:#dbcec8;}.cls-5{fill:#94a5af;}.cls-6,.cls-7,.cls-8,.cls-9{fill:none;stroke-linecap:round;stroke-miterlimit:10;}.cls-6{stroke:#94a5af;opacity:0.3;}.cls-6,.cls-9{stroke-width:3px;}.cls-7,.cls-8,.cls-9{stroke:#3e3127;}.cls-7{stroke-width:4px;}.cls-8{stroke-width:5px;}</style></defs><title>Asset 32</title><g id="Layer_2" data-name="Layer 2"><g id="Layer_1-2" data-name="Layer 1"><rect class="cls-1" x="3.08" y="19.52" width="110.27" height="11.06" rx="5.53"/><path class="cls-2" d="M112.77,26.26a5.53,5.53,0,0,1-5.52,5.53H88.59a5.53,5.53,0,1,0,0-11h18.66A5.52,5.52,0,0,1,112.77,26.26Z"/><path class="cls-3" d="M121.49,48.79a16.4,16.4,0,0,1-8.58,14.42l-94.18,1a16.39,16.39,0,0,1,7.81-30.8h73a16.11,16.11,0,0,1,5.53-1A16.38,16.38,0,0,1,121.49,48.79Z"/><path class="cls-3" d="M25.34,65.26,19,65.32a16.39,16.39,0,0,1,7.81-30.8h6.47a16.39,16.39,0,0,0-7.92,30.74Z"/><path class="cls-4" d="M123.39,48.41a16.39,16.39,0,0,1-8.57,14.42l-37.32.38A16.39,16.39,0,0,1,86.3,33h26.25A16.39,16.39,0,0,1,123.39,48.41Z"/><path class="cls-1" d="M61.42,165.09h44.37a.73.73,0,0,0,.72-.65l9.8-98.86,2.82-.79h-109l5.87.79,9.81,98.86a.73.73,0,0,0,.72.65H70.9"/><path class="cls-5" d="M32.4,166.71H26.53a.72.72,0,0,1-.71-.64L16,67.21l-5.87-.79H16l5.87.79,9.8,98.86A.73.73,0,0,0,32.4,166.71Z"/><path class="cls-2" d="M117.35,66.18l-2.81.79-9.82,98.86a.71.71,0,0,1-.71.65H74c19.55-28.63,25.29-80.56,26.81-100.3Z"/><ellipse class="cls-2" cx="100.71" cy="81.86" rx="4.09" ry="4.77" transform="translate(-24.93 49.31) rotate(-24.58)"/><ellipse class="cls-2" cx="92.99" cy="77.51" rx="1.82" ry="2.13" transform="translate(-23.81 45.7) rotate(-24.58)"/><circle class="cls-2" cx="93.4" cy="26.05" r="1.54"/><circle class="cls-2" cx="90.66" cy="24.76" r="0.69"/><circle class="cls-4" cx="68.39" cy="46.07" r="6.65"/><circle class="cls-4" cx="55.93" cy="50.1" r="2.96"/><path class="cls-2" d="M54.16,154.73a2.33,2.33,0,0,1-2.3-2.09L44.7,80.47A2.32,2.32,0,0,1,49.31,80l7.16,72.17a2.31,2.31,0,0,1-2.08,2.53Z"/><line class="cls-6" x1="39.82" y1="80.89" x2="46.98" y2="153.06"/><line class="cls-7" x1="88.25" y1="80.24" x2="81.09" y2="152.41"/><path class="cls-8" d="M15.7,65.72l2.74,27.66L20,108.72l5.11,51.46a5.6,5.6,0,0,0,5.57,5.06H70.58"/><path class="cls-8" d="M116,65.72l-9.38,94.46a5.6,5.6,0,0,1-5.57,5.06H61.11"/><rect class="cls-8" x="2.5" y="20.35" width="110.27" height="11.06" rx="5.53"/><path class="cls-7" d="M40.71,18.38V11a9,9,0,0,1,9-9h13a9,9,0,0,1,9,9v.42"/><line class="cls-7" x1="65.85" y1="79.25" x2="65.85" y2="150.62"/><path class="cls-7" d="M19.49,64.94A16.39,16.39,0,1,1,43.68,50.52"/><path class="cls-7" d="M113.67,64A16.39,16.39,0,1,0,89.48,49.55"/><line class="cls-7" x1="43.57" y1="80.24" x2="50.73" y2="152.41"/><path class="cls-9" d="M25.6,43.12a7.14,7.14,0,0,0-3.9,6.71,7.26,7.26,0,0,0,3.52,6.53"/><path class="cls-2" d="M33.58,67.53h70.24a0,0,0,0,1,0,0v4.73a0,0,0,0,1,0,0H37.66a4.08,4.08,0,0,1-4.08-4.08v-.64a0,0,0,0,1,0,0Z"/><line class="cls-8" x1="9.82" y1="64.94" x2="118.81" y2="64.94"/></g></g></svg>