<svg xmlns="http://www.w3.org/2000/svg" viewBox="0 0 143.82 155.51"><defs><style>.cls-1,.cls-10,.cls-12,.cls-9{fill:none;}.cls-1,.cls-12,.cls-2{stroke:#3e3127;}.cls-1,.cls-10,.cls-12,.cls-2,.cls-9{stroke-miterlimit:10;}.cls-1,.cls-2{stroke-width:5px;}.cls-2{fill:#fff;}.cls-3{fill:#637582;}.cls-4{fill:#94a5af;}.cls-5{fill:#455760;}.cls-6{fill:#eba42c;}.cls-7{fill:#f4cda2;}.cls-8{fill:#d38a20;}.cls-10,.cls-9{stroke:#fff;stroke-linecap:round;stroke-width:3px;}.cls-10{opacity:0.5;}.cls-11{fill:#fcdcbe;}.cls-12{stroke-width:4px;}</style></defs><title>Asset 27</title><g id="Layer_2" data-name="Layer 2"><g id="Layer_1-2" data-name="Layer 1"><circle class="cls-1" cx="92.8" cy="22.09" r="19.59"/><circle class="cls-2" cx="51.02" cy="22.09" r="19.59"/><rect class="cls-3" x="3.07" y="25.82" width="138.82" height="29.81" rx="3.66"/><path class="cls-4" d="M140.74,33v5.69c0-3.33,1.31-6-2.05-6H3c-3.32,0-1,2.72-1,6V33c0-3.32-2.27-6.05,1.05-6.05H138.69C142.05,26.94,140.74,29.67,140.74,33Z"/><path class="cls-3" d="M15.41,55.3H126.56a6.31,6.31,0,0,1,6.31,6.31v83a8.31,8.31,0,0,1-8.31,8.31H17.41a8.31,8.31,0,0,1-8.31-8.31v-83A6.31,6.31,0,0,1,15.41,55.3Z"/><rect class="cls-5" x="10.38" y="56.49" width="123.21" height="8.52"/><rect class="cls-5" x="10.38" y="143.93" width="123.21" height="8.52"/><path class="cls-6" d="M88.94,153.71V26.53c-.74-.75-31.79,0-31.79,0V153.71Z"/><rect class="cls-7" x="56.84" y="26.83" width="31.79" height="5.69"/><rect class="cls-8" x="56.02" y="56.49" width="31.79" height="8.5"/><rect class="cls-8" x="56.02" y="143.93" width="31.79" height="8.5"/><path class="cls-1" d="M10,55.35H133.8a0,0,0,0,1,0,0V148a5,5,0,0,1-5,5H15a5,5,0,0,1-5-5V55.35A0,0,0,0,1,10,55.35Z"/><circle class="cls-5" cx="109.17" cy="72.39" r="10.22"/><circle class="cls-8" cx="66.16" cy="141.15" r="7.2"/><circle class="cls-8" cx="72.73" cy="133.14" r="2.28"/><circle class="cls-5" cx="120.53" cy="84.88" r="3.89"/><line class="cls-9" x1="20.61" y1="92.74" x2="20.61" y2="128.89"/><line class="cls-10" x1="20.61" y1="76.34" x2="20.61" y2="84.25"/><polygon class="cls-7" points="87.31 100.78 57.51 88.67 57.51 70.51 87.31 82.61 87.31 100.78"/><polygon class="cls-11" points="87.31 112.52 57.51 100.42 57.51 94.35 87.31 106.45 87.31 112.52"/><polygon class="cls-11" points="87.31 117.08 57.51 104.98 57.51 102.91 87.31 115.01 87.31 117.08"/><line class="cls-12" x1="56.01" y1="151.44" x2="56.01" y2="24.26"/><line class="cls-12" x1="87.81" y1="24.26" x2="87.81" y2="151.44"/><rect class="cls-1" x="2.5" y="24.69" width="138.82" height="29.81" rx="5"/></g></g></svg>