<svg xmlns="http://www.w3.org/2000/svg" viewBox="0 0 199.63 75.76"><defs><style>.cls-1{fill:#fff;}.cls-2{fill:#dbcec8;}.cls-3,.cls-6,.cls-7{fill:none;stroke:#3e3127;stroke-miterlimit:10;}.cls-3{stroke-width:5px;}.cls-4{fill:#ffc754;}.cls-5{fill:#e8aa46;}.cls-6{stroke-linecap:round;stroke-width:3px;}.cls-7{stroke-width:2px;}</style></defs><title>Asset 28</title><g id="Layer_2" data-name="Layer 2"><g id="Layer_1-2" data-name="Layer 1"><rect class="cls-1" x="3.33" y="2.5" width="194.63" height="70.76" rx="30.37"/><path class="cls-2" d="M196.54,37.16a35.39,35.39,0,0,1-35.38,35.38H37.29A35.38,35.38,0,0,1,1.9,37.16a34,34,0,0,1,.33-4.76A35.38,35.38,0,0,0,37.29,63H161.16a35.4,35.4,0,0,0,35.06-30.6A35.56,35.56,0,0,1,196.54,37.16Z"/><rect class="cls-3" x="2.5" y="2.5" width="194.63" height="70.76" rx="35.38"/><path class="cls-4" d="M69.82,14.86l2.66,5.39a.92.92,0,0,0,.7.51l5.95.87a.93.93,0,0,1,.52,1.58l-4.31,4.2a.89.89,0,0,0-.26.82l1,5.93a.93.93,0,0,1-1.35,1l-5.32-2.8a.93.93,0,0,0-.86,0l-5.32,2.8a.93.93,0,0,1-1.35-1l1-5.93a.89.89,0,0,0-.26-.82l-4.31-4.2a.93.93,0,0,1,.52-1.58l5.95-.87a.92.92,0,0,0,.7-.51l2.66-5.39A.92.92,0,0,1,69.82,14.86Z"/><path class="cls-4" d="M38.78,14.86l2.66,5.39a.92.92,0,0,0,.7.51l6,.87a.93.93,0,0,1,.52,1.58l-4.31,4.2a.93.93,0,0,0-.27.82l1,5.93a.93.93,0,0,1-1.35,1l-5.32-2.8a.93.93,0,0,0-.86,0l-5.33,2.8a.92.92,0,0,1-1.34-1l1-5.93a.93.93,0,0,0-.27-.82l-4.3-4.2a.93.93,0,0,1,.51-1.58l5.95-.87a.89.89,0,0,0,.7-.51l2.66-5.39A.93.93,0,0,1,38.78,14.86Z"/><path class="cls-4" d="M100.86,14.86l2.67,5.39a.89.89,0,0,0,.7.51l6,.87a.93.93,0,0,1,.51,1.58l-4.3,4.2a.93.93,0,0,0-.27.82l1,5.93a.92.92,0,0,1-1.34,1l-5.33-2.8a.93.93,0,0,0-.86,0l-5.32,2.8a.93.93,0,0,1-1.35-1l1-5.93a.93.93,0,0,0-.27-.82l-4.31-4.2a.93.93,0,0,1,.52-1.58l6-.87a.92.92,0,0,0,.7-.51l2.66-5.39A.92.92,0,0,1,100.86,14.86Z"/><path class="cls-4" d="M131.91,14.86l2.66,5.39a.89.89,0,0,0,.7.51l5.95.87a.93.93,0,0,1,.51,1.58l-4.3,4.2a.93.93,0,0,0-.27.82l1,5.93a.93.93,0,0,1-1.35,1l-5.32-2.8a1,1,0,0,0-.87,0l-5.32,2.8a.93.93,0,0,1-1.35-1l1-5.93a.93.93,0,0,0-.27-.82l-4.31-4.2a.93.93,0,0,1,.52-1.58l5.95-.87a.92.92,0,0,0,.7-.51l2.66-5.39A.93.93,0,0,1,131.91,14.86Z"/><path class="cls-4" d="M163,14.86l2.66,5.39a.91.91,0,0,0,.7.51l5.95.87a.93.93,0,0,1,.51,1.58l-4.3,4.2a.93.93,0,0,0-.27.82l1,5.93a.93.93,0,0,1-1.35,1l-5.32-2.8a1,1,0,0,0-.87,0l-5.32,2.8a.93.93,0,0,1-1.35-1l1-5.93a.93.93,0,0,0-.27-.82l-4.3-4.2a.92.92,0,0,1,.51-1.58l5.95-.87a.92.92,0,0,0,.7-.51l2.66-5.39A.93.93,0,0,1,163,14.86Z"/><path class="cls-5" d="M43.87,27.41a.93.93,0,0,0-.27.82l1,5.93a.92.92,0,0,1-1.35,1L38,32.34a.94.94,0,0,0-.43-.1V14.35a.94.94,0,0,1,.84.51L41,20.25a.91.91,0,0,0,.7.51l5.95.87a.92.92,0,0,1,.51,1.58Z"/><path class="cls-5" d="M74.92,27.41a.93.93,0,0,0-.28.82l1,5.93a.92.92,0,0,1-1.34,1L69,32.34a.91.91,0,0,0-.43-.1V14.35a.94.94,0,0,1,.84.51l2.65,5.39a.92.92,0,0,0,.7.51l6,.87a.93.93,0,0,1,.52,1.58Z"/><path class="cls-5" d="M106,27.41a.93.93,0,0,0-.27.82l1,5.93a.92.92,0,0,1-1.34,1L100,32.34a.91.91,0,0,0-.43-.1V14.35a.94.94,0,0,1,.84.51l2.65,5.39a.92.92,0,0,0,.7.51l5.95.87a.92.92,0,0,1,.52,1.58Z"/><path class="cls-5" d="M137,27.41a.93.93,0,0,0-.27.82l1,5.93a.92.92,0,0,1-1.34,1l-5.33-2.79a.88.88,0,0,0-.43-.1V14.35a.94.94,0,0,1,.84.51l2.65,5.39a.92.92,0,0,0,.7.51l5.95.87a.92.92,0,0,1,.52,1.58Z"/><path class="cls-5" d="M168.47,27.41a.93.93,0,0,0-.27.82l1,5.93a.92.92,0,0,1-1.34,1l-5.32-2.79a1,1,0,0,0-.44-.1V14.35a.94.94,0,0,1,.84.51l2.65,5.39a.92.92,0,0,0,.71.51l5.94.87a.92.92,0,0,1,.52,1.58Z"/><line class="cls-6" x1="50.43" y1="47.56" x2="149.71" y2="47.56"/><line class="cls-6" x1="34.16" y1="57.06" x2="66.69" y2="57.06"/><line class="cls-6" x1="75.72" y1="57.06" x2="88.81" y2="57.06"/><circle class="cls-2" cx="171.7" cy="46.74" r="3.93"/><circle class="cls-2" cx="166.73" cy="58.81" r="10.3"/><path class="cls-7" d="M38.35,14.86,41,20.25a.92.92,0,0,0,.7.51l5.95.87a.93.93,0,0,1,.52,1.58l-4.31,4.2a.89.89,0,0,0-.26.82l1,5.93a.93.93,0,0,1-1.35,1L38,32.34a.93.93,0,0,0-.86,0l-5.32,2.8a.93.93,0,0,1-1.35-1l1-5.93a1,1,0,0,0-.26-.82l-4.31-4.2a.93.93,0,0,1,.52-1.58l5.94-.87a.89.89,0,0,0,.7-.51l2.67-5.39A.92.92,0,0,1,38.35,14.86Z"/><path class="cls-7" d="M69.39,14.86l2.66,5.39a.92.92,0,0,0,.7.51l6,.87a.93.93,0,0,1,.52,1.58l-4.31,4.2a1,1,0,0,0-.26.82l1,5.93a.93.93,0,0,1-1.35,1L69,32.34a.93.93,0,0,0-.86,0l-5.32,2.8a.93.93,0,0,1-1.35-1l1-5.93a.89.89,0,0,0-.26-.82l-4.31-4.2a.93.93,0,0,1,.52-1.58l6-.87a.92.92,0,0,0,.7-.51l2.66-5.39A.92.92,0,0,1,69.39,14.86Z"/><path class="cls-7" d="M100.44,14.86l2.66,5.39a.89.89,0,0,0,.7.51l6,.87a.93.93,0,0,1,.51,1.58l-4.3,4.2a.93.93,0,0,0-.27.82l1,5.93a.92.92,0,0,1-1.34,1L100,32.34a.93.93,0,0,0-.86,0l-5.32,2.8a.93.93,0,0,1-1.35-1l1-5.93a.93.93,0,0,0-.27-.82l-4.31-4.2a.93.93,0,0,1,.52-1.58l6-.87a.92.92,0,0,0,.7-.51l2.66-5.39A.93.93,0,0,1,100.44,14.86Z"/><path class="cls-7" d="M131.48,14.86l2.66,5.39a.89.89,0,0,0,.7.51l5.95.87a.93.93,0,0,1,.51,1.58l-4.3,4.2a.93.93,0,0,0-.27.82l1,5.93a.93.93,0,0,1-1.35,1l-5.32-2.8a1,1,0,0,0-.87,0l-5.32,2.8a.93.93,0,0,1-1.35-1l1-5.93a.93.93,0,0,0-.27-.82L120,23.21a.93.93,0,0,1,.52-1.58l6-.87a.92.92,0,0,0,.7-.51l2.66-5.39A.93.93,0,0,1,131.48,14.86Z"/><path class="cls-7" d="M162.52,14.86l2.66,5.39a.91.91,0,0,0,.7.51l6,.87a.92.92,0,0,1,.51,1.58l-4.3,4.2a.93.93,0,0,0-.27.82l1,5.93a.93.93,0,0,1-1.35,1l-5.32-2.8a1,1,0,0,0-.87,0l-5.32,2.8a.93.93,0,0,1-1.35-1l1-5.93a.93.93,0,0,0-.27-.82l-4.3-4.2a.92.92,0,0,1,.51-1.58l6-.87a.91.91,0,0,0,.7-.51l2.66-5.39A.93.93,0,0,1,162.52,14.86Z"/></g></g></svg>